# xmcd
#
# Track frame offsets:
#	150
#	2027
#	25450
#	40860
#	59167
#	84710
#	107297
#	120635
#	141040
#	162247
#	187180
#	205752
#	232115
#
# Disc length: 3295 seconds
#
# Revision: 1
# Processed by: cddbd v1.5.2PL0 Copyright (c) Steve Scherf et al.
# Submitted via: audiograbber 1.83.01
#
DISCID=b30cdd0d
DTITLE=Maceo Parker (Dial Maceo) - Dial Maceo
DYEAR=1900
DGENRE=
TTITLE0=Dial Maceo
TTITLE1=Rabbits in the pea patch
TTITLE2=My baby loves you
TTITLE3=I've got work to do
TTITLE4=The greatest romance ever sold
TTITLE5=Black widow
TTITLE6=Coin toss
TTITLE7=Simpley tooley
TTITLE8=Latin like
TTITLE9=The closer I get to you
TTITLE10=My love
TTITLE11=Homeboy
TTITLE12=Baby knows
EXTD=
EXTT0=
EXTT1=
EXTT2=
EXTT3=
EXTT4=
EXTT5=
EXTT6=
EXTT7=
EXTT8=
EXTT9=
EXTT10=
EXTT11=
EXTT12=
PLAYORDER=
